<svg width="48" height="48" viewBox="0 0 48 48" fill="none" xmlns="http://www.w3.org/2000/svg">
<circle cx="24" cy="24" r="23.5" fill="white" stroke="#E6E6E6"/>
<path d="M36.9998 24.2977C36.9998 23.414 36.9267 22.5256 36.7708 21.6562H24.2617V26.6621H31.4251C31.1278 28.2766 30.1727 29.7048 28.7742 30.6124V33.8605H33.0478C35.5574 31.5964 36.9998 28.2528 36.9998 24.2977Z" fill="#4285F4"/>
<path d="M24.2614 37.0007C27.8382 37.0007 30.8546 35.8496 33.0523 33.8625L28.7787 30.6144C27.5896 31.4073 26.0546 31.8563 24.2662 31.8563C20.8064 31.8563 17.8728 29.5683 16.8202 26.4922H12.4102V29.8406C14.6615 34.2303 19.247 37.0007 24.2614 37.0007Z" fill="#34A853"/>
<path d="M16.816 26.4897C16.2604 24.8752 16.2604 23.127 16.816 21.5125V18.1641H12.4107C10.5298 21.8373 10.5298 26.1649 12.4107 29.8381L16.816 26.4897Z" fill="#FBBC04"/>
<path d="M24.2614 16.1453C26.1521 16.1166 27.9795 16.814 29.3488 18.0942L33.1351 14.3827C30.7376 12.1759 27.5555 10.9627 24.2614 11.0009C19.247 11.0009 14.6615 13.7713 12.4102 18.1658L16.8154 21.5142C17.8631 18.4333 20.8015 16.1453 24.2614 16.1453Z" fill="#EA4335"/>
</svg>
