<svg width="48" height="48" viewBox="0 0 48 48" fill="none" xmlns="http://www.w3.org/2000/svg">
<circle cx="24" cy="24" r="24" fill="#FFE812"/>
<g clip-path="url(#clip0_0_1)">
<path d="M39.1829 36.7339C39.1829 38.0865 38.0865 39.1829 36.7339 39.1829H10.2849C8.93235 39.1829 7.83594 38.0865 7.83594 36.7339V10.2849C7.83594 8.93235 8.93235 7.83594 10.2849 7.83594H36.7339C38.0865 7.83594 39.1829 8.93235 39.1829 10.2849V36.7339Z" fill="#FFE812"/>
<path d="M23.5081 12.2422C16.4749 12.2422 10.7734 16.7377 10.7734 22.283C10.7734 25.8682 13.157 29.014 16.7426 30.7904C16.5475 31.4631 15.4891 35.1182 15.4469 35.4054C15.4469 35.4054 15.4216 35.6211 15.5613 35.7034C15.701 35.7857 15.8654 35.7218 15.8654 35.7218C16.266 35.6658 20.5114 32.6837 21.2463 32.1659C21.9803 32.2698 22.7362 32.3238 23.5081 32.3238C30.5414 32.3238 36.2428 27.8285 36.2428 22.283C36.2428 16.7377 30.5414 12.2422 23.5081 12.2422Z" fill="black"/>
<path d="M16.4692 25.7903C16.064 25.7903 15.7345 25.4756 15.7345 25.0886V20.7239H14.5882C14.1906 20.7239 13.8672 20.4012 13.8672 20.0045C13.8672 19.6079 14.1907 19.2852 14.5882 19.2852H18.3503C18.7479 19.2852 19.0713 19.6079 19.0713 20.0045C19.0713 20.4012 18.7478 20.7239 18.3503 20.7239H17.2039V25.0886C17.2039 25.4756 16.8744 25.7903 16.4692 25.7903ZM22.9115 25.7807C22.6051 25.7807 22.3708 25.6563 22.3001 25.4562L21.9363 24.5038L19.696 24.5037L19.332 25.4567C19.2616 25.6564 19.0273 25.7807 18.7209 25.7807C18.5598 25.7809 18.4005 25.7463 18.2539 25.6793C18.0514 25.5859 17.8567 25.329 18.0798 24.6361L19.8372 20.0104C19.961 19.6586 20.337 19.2962 20.8156 19.2853C21.2954 19.2961 21.6715 19.6586 21.7955 20.0112L23.5522 24.6347C23.7758 25.3292 23.5811 25.5863 23.3785 25.6794C23.2319 25.7463 23.0726 25.7808 22.9115 25.7807C22.9115 25.7807 22.9114 25.7807 22.9115 25.7807ZM21.55 23.2024L20.8162 21.1177L20.0823 23.2024H21.55ZM24.7345 25.6831C24.3462 25.6831 24.0305 25.3809 24.0305 25.0096V20.0199C24.0305 19.6147 24.3669 19.2852 24.7805 19.2852C25.194 19.2852 25.5305 19.6147 25.5305 20.0199V24.3362H27.0917C27.48 24.3362 27.7958 24.6384 27.7958 25.0096C27.7958 25.3809 27.48 25.6831 27.0917 25.6831H24.7345ZM28.8162 25.7807C28.4111 25.7807 28.0816 25.4512 28.0816 25.046V20.0199C28.0816 19.6147 28.4111 19.2852 28.8162 19.2852C29.2214 19.2852 29.5509 19.6147 29.5509 20.0199V21.599L31.6007 19.5492C31.7062 19.4437 31.851 19.3857 32.0082 19.3857C32.1917 19.3857 32.3758 19.4648 32.5138 19.6027C32.6425 19.7312 32.7193 19.8967 32.7298 20.0685C32.7405 20.2417 32.6828 20.4005 32.5677 20.5158L30.8935 22.1898L32.7019 24.5856C32.7603 24.6625 32.8028 24.7502 32.8271 24.8436C32.8513 24.937 32.8567 25.0343 32.843 25.1299C32.8299 25.2255 32.7979 25.3176 32.749 25.4007C32.7001 25.4839 32.6351 25.5565 32.5579 25.6144C32.4309 25.711 32.2756 25.7631 32.116 25.7627C32.0022 25.7632 31.8898 25.7371 31.7879 25.6864C31.686 25.6357 31.5973 25.5618 31.5291 25.4707L29.8061 23.1877L29.5512 23.4427V25.0456C29.551 25.2405 29.4735 25.4273 29.3357 25.5651C29.1979 25.7029 29.0111 25.7804 28.8162 25.7807Z" fill="#FFE812"/>
</g>
<defs>
<clipPath id="clip0_0_1">
<rect width="31.3469" height="31.3469" fill="white" transform="translate(7.83594 7.83594)"/>
</clipPath>
</defs>
</svg>
